<svg xmlns="http://www.w3.org/2000/svg" xmlns:xlink="http://www.w3.org/1999/xlink" version="1.1" width="1000" height="1000" viewBox="0 0 1000 1000" xml:space="preserve">
<desc>Created with Fabric.js 3.5.0</desc>
<defs>
</defs>
<rect x="0" y="0" width="100%" height="100%" fill="rgba(255,255,255,0)"/>
<g transform="matrix(0 1.9402 -1.8147 0 500.4932 499.4884)" id="943323">
<path style="stroke: none; stroke-width: 0; stroke-dasharray: none; stroke-linecap: butt; stroke-dashoffset: 0; stroke-linejoin: miter; stroke-miterlimit: 4; is-custom-font: none; font-file-url: none; fill: rgb(255,255,255); fill-rule: nonzero; opacity: 1;" vector-effect="non-scaling-stroke" transform=" translate(-256, -255.9794)" d="M 40 208 c -22.1 0 -40 17.9 -40 40 s 17.9 40 40 40 l 180.2 0 c -7.6 8.5 -12.2 19.7 -12.2 32 c 0 25.3 19.5 46 44.3 47.9 c -7.7 8.5 -12.3 19.8 -12.3 32.1 c 0 26.5 21.5 48 48 48 l 32 0 l 64 0 c 70.7 0 128 -57.3 128 -128 l 0 -113.1 c 0 -40.2 -16 -78.8 -44.4 -107.3 C 444.8 76.8 413.9 64 381.7 64 L 336 64 c -21.3 0 -39.3 13.9 -45.6 33.1 l 74.5 23.7 c 8.4 2.7 13.1 11.7 10.4 20.1 s -11.7 13.1 -20.1 10.4 L 288 129.9 l 0 0.1 L 84 65.8 C 62.9 59.2 40.5 70.9 33.8 92 s 5.1 43.5 26.2 50.2 L 269.5 208 L 40 208 z" stroke-linecap="round"/>
</g>
</svg>